<svg xmlns="http://www.w3.org/2000/svg" viewBox="0 0 180 200" role="img" aria-label="黑发眼镜少年桌宠">
<defs>
  <linearGradient id="glasses-h" x1="0" y1="0" x2="0" y2="1"><stop stop-color="#3a3d55"/><stop offset="1" stop-color="#1c1e30"/></linearGradient>
  <linearGradient id="glasses-h2" x1="0" y1="0" x2="0" y2="1"><stop stop-color="#1c1e30"/><stop offset="1" stop-color="#1c1e30" stop-opacity=".6"/></linearGradient>
  <linearGradient id="glasses-e" x1="0" y1="0" x2="0" y2="1"><stop stop-color="#2b6b5a"/><stop offset=".5" stop-color="#5fc5a4"/><stop offset="1" stop-color="#b8f0dc"/></linearGradient>
  <linearGradient id="glasses-c" x1="0" y1="0" x2="0" y2="1"><stop stop-color="#2f7f6e"/><stop offset="1" stop-color="#1f5b4e"/></linearGradient>
  <radialGradient id="glasses-b" cx=".5" cy=".5" r=".5"><stop stop-color="#ff9db4" stop-opacity=".8"/><stop offset="1" stop-color="#ff9db4" stop-opacity="0"/></radialGradient>
  <radialGradient id="glasses-g" cx=".35" cy=".3" r=".7"><stop stop-color="#fff" stop-opacity=".55"/><stop offset=".5" stop-color="#fff" stop-opacity="0"/></radialGradient>
  <filter id="glasses-s" x="-30%" y="-30%" width="160%" height="170%"><feDropShadow dx="0" dy="5" stdDeviation="4" flood-color="#2a2340" flood-opacity=".28"/></filter>
</defs>
<ellipse cx="90" cy="190" rx="40" ry="7" fill="#2a2340" opacity=".16"/>
<g filter="url(#glasses-s)">

<path d="M24 98c-4-54 26-84 66-84s70 30 66 84c0 26-8 48-20 62-14 6-78 6-92 0-12-14-20-36-20-62z" fill="url(#glasses-h2)"/>
<path d="M27 96c-4-52 26-80 63-80s67 28 63 80c0 24-8 46-18 60-14 6-76 6-90 0-10-14-18-36-18-60z" fill="url(#glasses-h)"/>

<path d="M58 146c-8 14-8 30-4 42h72c4-12 4-28-4-42-8-8-56-8-64 0z" fill="url(#glasses-c)"/>
<path d="M78 146h24l-4 10H82z" fill="#fff"/><path d="M90 146v14" stroke="#1f5b4e" stroke-width="2"/>
<circle cx="60" cy="178" r="7" fill="#ffefe6"/><circle cx="120" cy="178" r="7" fill="#ffefe6"/>
<rect x="80" y="128" width="20" height="18" rx="6" fill="#ffd9cc"/>
<path d="M32 92c0-36 26-58 58-58s58 22 58 58c0 28-22 50-50 56-4 1-12 1-16 0-28-6-50-28-50-56z" fill="#ffefe6"/>
<path d="M34 96c4 26 26 46 56 50-30 0-54-20-56-50z" fill="#ffd9cc" opacity=".7"/><path d="M146 96c-4 26-26 46-56 50 30 0 54-20 56-50z" fill="#ffd9cc" opacity=".7"/>
<ellipse cx="52" cy="120" rx="15" ry="9" fill="url(#glasses-b)"/><ellipse cx="128" cy="120" rx="15" ry="9" fill="url(#glasses-b)"/>
<path d="M44 118l4 5M50 116l4 5M122 116l4 5M128 118l4 5" stroke="#ff8aa6" stroke-width="1.5" stroke-linecap="round" opacity=".6"/>
<ellipse cx="65" cy="106" rx="14" ry="19" fill="#fff"/>
<ellipse cx="65" cy="108" rx="12" ry="17" fill="url(#glasses-e)"/>
<ellipse cx="65" cy="112" rx="7" ry="10" fill="#0f2e26"/>
<ellipse cx="65" cy="108" rx="12" ry="17" fill="url(#glasses-g)"/>
<ellipse cx="60" cy="99" rx="5" ry="6" fill="#fff"/>
<circle cx="70" cy="116" r="2.8" fill="#fff" opacity=".95"/>
<circle cx="63" cy="121" r="1.6" fill="#fff" opacity=".8"/>
<path d="M50 96c3-13 25-13 29 0" stroke="#242638" stroke-width="3.8" fill="none" stroke-linecap="round"/>
<path d="M79 96l5-4M76 91l3-4" stroke="#242638" stroke-width="2.4" stroke-linecap="round"/>
<path d="M54 123q11 5 22 0" stroke="#242638" stroke-width="1.4" fill="none" stroke-linecap="round" opacity=".5"/>
<ellipse cx="115" cy="106" rx="14" ry="19" fill="#fff"/>
<ellipse cx="115" cy="108" rx="12" ry="17" fill="url(#glasses-e)"/>
<ellipse cx="115" cy="112" rx="7" ry="10" fill="#0f2e26"/>
<ellipse cx="115" cy="108" rx="12" ry="17" fill="url(#glasses-g)"/>
<ellipse cx="110" cy="99" rx="5" ry="6" fill="#fff"/>
<circle cx="120" cy="116" r="2.8" fill="#fff" opacity=".95"/>
<circle cx="113" cy="121" r="1.6" fill="#fff" opacity=".8"/>
<path d="M100 96c3-13 25-13 29 0" stroke="#242638" stroke-width="3.8" fill="none" stroke-linecap="round"/>
<path d="M129 96l5-4M126 91l3-4" stroke="#242638" stroke-width="2.4" stroke-linecap="round"/>
<path d="M104 123q11 5 22 0" stroke="#242638" stroke-width="1.4" fill="none" stroke-linecap="round" opacity=".5"/>
<ellipse cx="65" cy="106" rx="15" ry="0" fill="#ffefe6"><animate attributeName="ry" values="0;0;0;20;0;0" keyTimes="0;0.9;0.93;0.955;0.985;1" dur="5.4s" repeatCount="indefinite"/></ellipse>
<path d="M52 107q13 7 26 0" stroke="#242638" stroke-width="0" fill="none" stroke-linecap="round"><animate attributeName="stroke-width" values="0;0;0;3.6;0;0" keyTimes="0;0.9;0.93;0.955;0.985;1" dur="5.4s" repeatCount="indefinite"/></path>
<ellipse cx="115" cy="106" rx="15" ry="0" fill="#ffefe6"><animate attributeName="ry" values="0;0;0;20;0;0" keyTimes="0;0.9;0.93;0.955;0.985;1" dur="5.4s" repeatCount="indefinite"/></ellipse>
<path d="M102 107q13 7 26 0" stroke="#242638" stroke-width="0" fill="none" stroke-linecap="round"><animate attributeName="stroke-width" values="0;0;0;3.6;0;0" keyTimes="0;0.9;0.93;0.955;0.985;1" dur="5.4s" repeatCount="indefinite"/></path>
<path d="M54 78q11-6 22-1" stroke="#1c1e30" stroke-width="2" fill="none" stroke-linecap="round" opacity=".85"/><path d="M104 77q11-5 22 1" stroke="#1c1e30" stroke-width="2" fill="none" stroke-linecap="round" opacity=".85"/>
<path d="M86 132q4 3 8 0" stroke="#c95c74" stroke-width="2" fill="none" stroke-linecap="round"/>
<path d="M30 94c2-40 28-64 60-64s58 24 60 64c-6-4-11-12-14-24-4 10-10 16-18 18-3-8-6-14-9-22-3 8-6 14-9 22-8-2-14-8-18-18-3 12-8 20-14 24-4-10-8-18-12-24-6 8-12 16-26 24z" fill="url(#glasses-h)"/>
<path d="M58 44c-8 8-12 20-14 34M122 44c8 8 12 20 14 34M90 40c-2 12-3 22-5 30M72 46c-2 10-3 18-4 26M108 46c2 10 3 18 4 26" stroke="#1c1e30" stroke-width="1.5" fill="none" stroke-linecap="round" opacity=".5"/>
<path d="M48 58q42-24 84 0" stroke="#7a7ea8" stroke-width="6" fill="none" stroke-linecap="round" opacity=".55"/>

<rect x="48" y="92" width="34" height="28" rx="12" fill="none" stroke="#2c2f4a" stroke-width="2.6"/><rect x="98" y="92" width="34" height="28" rx="12" fill="none" stroke="#2c2f4a" stroke-width="2.6"/><path d="M82 104h16M48 102l-8-4M132 102l8-4" stroke="#2c2f4a" stroke-width="2.6" stroke-linecap="round"/><path d="M54 97l7-3M104 97l7-3" stroke="#fff" stroke-width="2" stroke-linecap="round" opacity=".7"/>
</g></svg>
